<svg width="45" height="45" viewBox="0 0 196 195" fill="none" xmlns="http://www.w3.org/2000/svg">
<path d="M52.9 24.05C47.0932 23.9752 42.1047 28.0859 39.6332 33.1096C34.8054 41.1897 29.9777 49.2698 25.15 57.35C30.9387 72.6404 40.2711 86.4216 49.4831 99.8013C49.8955 96.067 50.4301 91.9186 52.7758 88.8391C64.6896 69.3785 76.5947 49.9061 88.5147 30.4538C91.1049 27.3092 88.28 23.3863 84.5148 23.9779C73.9776 23.9377 63.4379 24.0359 52.9 24.05Z" fill="#D43F36"/>
<path d="M105.74 26.12C106.79 23.72 109.82 24.21 111.94 24.03L142.06 24.11C146.9 24.09 151.55 26.84 154.02 30.98L190.16 89.82C192.98 94.07 193.02 99.94 190.16 104.18C183.25 115.2 176.72 126.45 169.64 137.34C168.88 133.22 167.68 129.11 165.31 125.61C158.37 114.89 152.08 103.78 145.12 93.08L107.19 31.84C106.2 30.13 104.97 28.16 105.74 26.12V26.12Z" fill="#099E57"/>
<path d="M25.15 57.36C33.5409 72.2528 41.2772 87.5466 50.8548 101.735C63.27 122.055 75.6824 142.386 88.1047 162.694C91.8075 167.79 86.8965 170.017 82.0785 169.998C72.0835 169.949 62.0836 170.058 52.0918 169.905C46.6752 169.607 42.2394 165.876 39.8988 161.177C28.0502 141.884 16.1258 122.635 4.32502 103.315C1.72245 98.7925 2.33951 93.068 5.52789 89.0395C12.0686 78.4797 18.6093 67.9198 25.15 57.36Z" fill="#4585F4"/>
<path d="M145.125 93.075C145.448 97.3181 144.785 101.746 142.201 105.225C130.339 124.627 118.386 143.982 106.584 163.415C104.47 166.613 106.875 169.82 110.379 169.71L142.732 169.869C148.358 169.667 153.269 165.818 155.623 160.823C160.157 152.916 164.988 145.183 169.65 137.35C168.918 132.211 166.716 127.478 163.825 123.221C157.591 113.173 151.358 103.124 145.125 93.075V93.075Z" fill="#F7C542"/>
<path d="M145.12 93.08C152.08 103.78 158.37 114.89 165.31 125.61C167.68 129.11 168.88 133.22 169.64 137.34L167.853 140.33L136.868 115.937C138.498 113.057 141.73 106.24 143.36 103.36C145.19 100.27 145.23 96.56 145.12 93.08V93.08Z" fill="url(#paint0_radial)"/>
<path d="M28.2273 52.2388C38.5532 60.4447 48.879 68.6505 59.2049 76.8564C55.9611 83.8019 51.0839 90.1403 49.7575 97.8571C49.6873 99.2946 49.2855 99.4492 48.6211 98.0624C41.8996 87.5126 35.3325 77.3738 28.6458 66.8026C26.9662 63.8727 25.9921 60.6111 25.15 57.36C26.1758 55.6529 27.2016 53.9459 28.2273 52.2388Z" fill="url(#paint1_radial)"/>
<defs>
<radialGradient id="paint0_radial" cx="0" cy="0" r="1" gradientUnits="userSpaceOnUse" gradientTransform="translate(170.134 141.344) rotate(-36.211) scale(28.6048 43.9534)">
<stop stop-color="#DAAC3C"/>
<stop offset="1" stop-color="#F7C542"/>
</radialGradient>
<radialGradient id="paint1_radial" cx="0" cy="0" r="1" gradientUnits="userSpaceOnUse" gradientTransform="translate(23.2343 54.9676) rotate(50.4616) scale(42.3945 23.1925)">
<stop stop-color="#B63A32"/>
<stop offset="1" stop-color="#D43F36"/>
</radialGradient>
</defs>
</svg>
